<svg xmlns="http://www.w3.org/2000/svg" xmlns:xlink="http://www.w3.org/1999/xlink" width="500" zoomAndPan="magnify" viewBox="0 0 375 374.999991" height="500" preserveAspectRatio="xMidYMid meet" version="1.0"><defs><g/></defs><path fill="#ffffff" d="M 284.476562 132.796875 C 281.304688 98.417969 273.707031 63.523438 254.671875 34.234375 C 208.046875 23.242188 156.699219 35.707031 120.253906 66.839844 C 146.074219 67.433594 171.453125 73.925781 195.355469 83.515625 C 226.933594 96.203125 256.296875 113.761719 284.476562 132.796875 Z M 284.476562 132.796875 " fill-opacity="1" fill-rule="nonzero"/><path fill="#ffffff" d="M 287.722656 92.074219 C 295.839844 131.910156 295.988281 172.929688 292.8125 213.285156 C 320.703125 193.292969 348.441406 169.757812 363.121094 138.035156 C 350.210938 91.777344 312.953125 54.078125 268.097656 37.699219 C 268.097656 37.699219 280.273438 63.449219 285.511719 81.746094 C 286.25 85.210938 287.058594 88.605469 287.722656 92.074219 Z M 287.722656 92.074219 " fill-opacity="1" fill-rule="nonzero"/><path fill="#ffffff" d="M 114.648438 97.53125 C 114.574219 109.558594 114.648438 121.65625 114.574219 133.683594 C 126.449219 133.3125 138.476562 134.714844 150.207031 133.164062 C 169.535156 120.917969 189.601562 109.777344 210.1875 99.671875 C 180.972656 86.613281 149.617188 76.359375 117.304688 76.507812 C 114.277344 76.800781 110.515625 76.210938 108.226562 78.644531 C 102.769531 84.398438 98.417969 91.039062 93.695312 97.457031 C 100.703125 97.53125 107.710938 97.53125 114.648438 97.53125 Z M 114.648438 97.53125 " fill-opacity="1" fill-rule="nonzero"/><path fill="#ffffff" d="M 102.695312 141.945312 C 102.695312 130.878906 102.695312 119.886719 102.695312 108.820312 C 91.039062 108.894531 79.382812 108.894531 67.726562 108.894531 C 67.652344 119.886719 67.726562 130.953125 67.726562 141.945312 C 79.382812 141.871094 91.039062 141.871094 102.695312 141.945312 Z M 102.695312 141.945312 " fill-opacity="1" fill-rule="nonzero"/><path fill="#ffffff" d="M 28.035156 160.609375 C 37.257812 160.390625 46.550781 160.460938 55.773438 160.609375 C 55.554688 151.976562 55.625 143.273438 55.773438 134.640625 C 46.257812 134.789062 36.738281 134.714844 27.222656 134.789062 C 27.148438 143.347656 28.257812 151.976562 28.035156 160.609375 Z M 28.035156 160.609375 " fill-opacity="1" fill-rule="nonzero"/><path fill="#ffffff" d="M 366.515625 151.832031 C 348.734375 180.75 322.765625 203.621094 294.804688 222.433594 C 273.265625 237.113281 250.171875 249.363281 226.710938 260.722656 C 257.992188 275.183594 292.078125 286.691406 327.046875 284.550781 C 360.246094 249.730469 375 199.046875 366.515625 151.832031 Z M 366.515625 151.832031 " fill-opacity="1" fill-rule="nonzero"/><path fill="#ffffff" d="M 141.722656 155.445312 C 128.589844 155.667969 115.457031 155.078125 102.328125 155.742188 C 93.179688 155.296875 84.03125 155.519531 74.882812 155.445312 C 74.882812 176.25 74.957031 197.128906 74.882812 217.933594 C 97.164062 217.859375 119.515625 217.933594 141.796875 218.007812 C 141.722656 197.203125 141.945312 176.324219 141.722656 155.445312 Z M 141.722656 155.445312 " fill-opacity="1" fill-rule="nonzero"/><path fill="#ffffff" d="M 0 158.398438 C 0 163.855469 0 169.316406 0 174.847656 C 5.976562 174.773438 12.023438 174.773438 18 174.921875 C 17.925781 169.390625 17.925781 163.855469 18 158.324219 C 12.023438 158.398438 6.050781 158.398438 0 158.398438 Z M 0 158.398438 " fill-opacity="1" fill-rule="nonzero"/><path fill="#ffffff" d="M 63.890625 180.160156 C 50.386719 180.160156 36.8125 180.160156 23.3125 180.234375 C 23.3125 192.777344 23.386719 205.316406 23.3125 217.859375 C 36.8125 217.859375 50.386719 217.785156 63.890625 217.933594 C 63.890625 205.390625 63.890625 192.777344 63.890625 180.160156 Z M 63.890625 180.160156 " fill-opacity="1" fill-rule="nonzero"/><path fill="#ffffff" d="M 62.265625 229.589844 C 62.488281 241.6875 62.339844 253.863281 62.414062 265.960938 C 75.621094 265.886719 88.75 265.886719 101.957031 265.960938 C 101.957031 253.863281 101.882812 241.6875 102.03125 229.589844 C 88.679688 229.589844 75.472656 229.664062 62.265625 229.589844 Z M 62.265625 229.589844 " fill-opacity="1" fill-rule="nonzero"/><path fill="#ffffff" d="M 154.265625 227.523438 C 157.511719 261.757812 164.296875 296.945312 183.332031 326.160156 C 229.882812 337.226562 281.230469 325.71875 317.898438 294.734375 C 295.839844 293.773438 274 288.980469 253.34375 281.304688 C 217.933594 268.320312 185.398438 248.773438 154.265625 227.523438 Z M 154.265625 227.523438 " fill-opacity="1" fill-rule="nonzero"/><path fill="#ffffff" d="M 110.664062 249.582031 C 110.738281 260.574219 110.738281 271.640625 110.589844 282.632812 C 126.746094 300.339844 147.253906 313.769531 169.535156 322.472656 C 157.953125 299.675781 150.871094 274.886719 147.625 249.582031 C 135.304688 249.65625 122.984375 249.65625 110.664062 249.582031 Z M 110.664062 249.582031 " fill-opacity="1" fill-rule="nonzero"/><g fill="#ffffff" fill-opacity="1"><g transform="translate(153.390873, 189.285013)"><g><path d="M 8.03125 0.265625 C 6.875 0.265625 5.835938 0.109375 4.921875 -0.203125 C 4.003906 -0.515625 3.238281 -0.925781 2.625 -1.4375 C 2.007812 -1.957031 1.550781 -2.519531 1.25 -3.125 L 2.4375 -4.5625 L 2.75 -4.5625 C 3.882812 -2.644531 5.644531 -1.6875 8.03125 -1.6875 C 9.414062 -1.6875 10.441406 -1.972656 11.109375 -2.546875 C 11.785156 -3.128906 12.125 -3.9375 12.125 -4.96875 C 12.125 -5.570312 12.007812 -6.082031 11.78125 -6.5 C 11.5625 -6.914062 11.195312 -7.269531 10.6875 -7.5625 C 10.175781 -7.863281 9.484375 -8.125 8.609375 -8.34375 L 6.453125 -8.875 C 4.859375 -9.257812 3.679688 -9.867188 2.921875 -10.703125 C 2.160156 -11.546875 1.78125 -12.613281 1.78125 -13.90625 C 1.78125 -14.820312 2.015625 -15.632812 2.484375 -16.34375 C 2.953125 -17.0625 3.640625 -17.625 4.546875 -18.03125 C 5.453125 -18.4375 6.535156 -18.640625 7.796875 -18.640625 C 9.171875 -18.640625 10.332031 -18.441406 11.28125 -18.046875 C 12.238281 -17.660156 13.003906 -17.078125 13.578125 -16.296875 L 12.515625 -14.875 L 12.203125 -14.875 C 11.671875 -15.519531 11.046875 -15.992188 10.328125 -16.296875 C 9.609375 -16.597656 8.765625 -16.75 7.796875 -16.75 C 6.515625 -16.75 5.550781 -16.5 4.90625 -16 C 4.257812 -15.507812 3.9375 -14.828125 3.9375 -13.953125 C 3.9375 -13.128906 4.171875 -12.472656 4.640625 -11.984375 C 5.117188 -11.492188 5.925781 -11.113281 7.0625 -10.84375 L 9.265625 -10.3125 C 11.046875 -9.894531 12.335938 -9.253906 13.140625 -8.390625 C 13.941406 -7.523438 14.34375 -6.414062 14.34375 -5.0625 C 14.34375 -4.019531 14.109375 -3.097656 13.640625 -2.296875 C 13.171875 -1.503906 12.460938 -0.878906 11.515625 -0.421875 C 10.578125 0.0351562 9.414062 0.265625 8.03125 0.265625 Z M 8.03125 0.265625 "/></g></g></g><g fill="#ffffff" fill-opacity="1"><g transform="translate(169.137699, 189.285013)"><g><path d="M 2.40625 0 L 2.40625 -13.859375 L 4.359375 -13.859375 L 4.359375 -11.6875 L 4.625 -11.625 C 5.082031 -12.4375 5.671875 -13.054688 6.390625 -13.484375 C 7.109375 -13.910156 7.984375 -14.125 9.015625 -14.125 C 10.679688 -14.125 11.890625 -13.695312 12.640625 -12.84375 C 13.390625 -12 13.765625 -10.691406 13.765625 -8.921875 L 13.765625 0 L 11.71875 0 L 11.71875 -8.875 C 11.71875 -9.707031 11.609375 -10.375 11.390625 -10.875 C 11.171875 -11.382812 10.835938 -11.753906 10.390625 -11.984375 C 9.941406 -12.222656 9.351562 -12.34375 8.625 -12.34375 C 7.382812 -12.34375 6.378906 -11.925781 5.609375 -11.09375 C 4.835938 -10.269531 4.453125 -8.941406 4.453125 -7.109375 L 4.453125 0 Z M 2.40625 0 "/></g></g></g><g fill="#ffffff" fill-opacity="1"><g transform="translate(185.09816, 189.285013)"><g><path d="M 5.71875 0.265625 C 4.351562 0.265625 3.285156 -0.0859375 2.515625 -0.796875 C 1.753906 -1.515625 1.375 -2.535156 1.375 -3.859375 C 1.375 -4.679688 1.539062 -5.375 1.875 -5.9375 C 2.21875 -6.5 2.742188 -6.957031 3.453125 -7.3125 C 4.171875 -7.675781 5.101562 -7.953125 6.25 -8.140625 C 7.25 -8.304688 8.007812 -8.492188 8.53125 -8.703125 C 9.0625 -8.910156 9.414062 -9.144531 9.59375 -9.40625 C 9.769531 -9.664062 9.859375 -9.992188 9.859375 -10.390625 C 9.859375 -11.015625 9.640625 -11.492188 9.203125 -11.828125 C 8.773438 -12.171875 8.085938 -12.34375 7.140625 -12.34375 C 6.242188 -12.34375 5.472656 -12.164062 4.828125 -11.8125 C 4.191406 -11.46875 3.601562 -10.953125 3.0625 -10.265625 L 2.8125 -10.265625 L 1.8125 -11.6875 C 2.394531 -12.425781 3.140625 -13.015625 4.046875 -13.453125 C 4.953125 -13.898438 5.984375 -14.125 7.140625 -14.125 C 8.773438 -14.125 9.976562 -13.765625 10.75 -13.046875 C 11.519531 -12.328125 11.90625 -11.335938 11.90625 -10.078125 L 11.90625 -2.734375 C 11.90625 -1.960938 12.234375 -1.578125 12.890625 -1.578125 C 13.109375 -1.578125 13.316406 -1.613281 13.515625 -1.6875 L 13.703125 -1.640625 L 13.9375 -0.21875 C 13.78125 -0.113281 13.578125 -0.0351562 13.328125 0.015625 C 13.085938 0.0664062 12.835938 0.09375 12.578125 0.09375 C 11.816406 0.09375 11.238281 -0.0703125 10.84375 -0.40625 C 10.457031 -0.738281 10.210938 -1.234375 10.109375 -1.890625 L 9.84375 -1.90625 C 9.445312 -1.175781 8.910156 -0.628906 8.234375 -0.265625 C 7.566406 0.0859375 6.726562 0.265625 5.71875 0.265625 Z M 6.171875 -1.375 C 6.941406 -1.375 7.609375 -1.550781 8.171875 -1.90625 C 8.734375 -2.257812 9.164062 -2.757812 9.46875 -3.40625 C 9.769531 -4.050781 9.921875 -4.796875 9.921875 -5.640625 L 9.921875 -7.40625 L 9.6875 -7.453125 C 9.375 -7.234375 8.992188 -7.050781 8.546875 -6.90625 C 8.109375 -6.757812 7.492188 -6.628906 6.703125 -6.515625 C 5.890625 -6.398438 5.25 -6.226562 4.78125 -6 C 4.3125 -5.78125 3.972656 -5.492188 3.765625 -5.140625 C 3.566406 -4.796875 3.46875 -4.367188 3.46875 -3.859375 C 3.46875 -3.046875 3.707031 -2.425781 4.1875 -2 C 4.664062 -1.582031 5.328125 -1.375 6.171875 -1.375 Z M 6.171875 -1.375 "/></g></g></g><g fill="#ffffff" fill-opacity="1"><g transform="translate(199.43745, 189.285013)"><g><path d="M 2.40625 5.609375 L 2.40625 -13.859375 L 4.453125 -13.859375 L 4.453125 -11.78125 L 4.71875 -11.734375 C 5.75 -13.328125 7.265625 -14.125 9.265625 -14.125 C 10.421875 -14.125 11.425781 -13.859375 12.28125 -13.328125 C 13.144531 -12.804688 13.816406 -12.003906 14.296875 -10.921875 C 14.773438 -9.847656 15.015625 -8.515625 15.015625 -6.921875 C 15.015625 -5.335938 14.765625 -4.007812 14.265625 -2.9375 C 13.765625 -1.863281 13.066406 -1.0625 12.171875 -0.53125 C 11.285156 0 10.265625 0.265625 9.109375 0.265625 C 8.171875 0.265625 7.335938 0.101562 6.609375 -0.21875 C 5.878906 -0.550781 5.25 -1.085938 4.71875 -1.828125 L 4.453125 -1.78125 L 4.453125 5.609375 Z M 8.65625 -1.578125 C 11.46875 -1.578125 12.875 -3.359375 12.875 -6.921875 C 12.875 -10.503906 11.46875 -12.296875 8.65625 -12.296875 C 7.832031 -12.296875 7.109375 -12.101562 6.484375 -11.71875 C 5.859375 -11.34375 5.363281 -10.753906 5 -9.953125 C 4.632812 -9.160156 4.453125 -8.148438 4.453125 -6.921875 C 4.453125 -5.710938 4.632812 -4.707031 5 -3.90625 C 5.363281 -3.101562 5.859375 -2.515625 6.484375 -2.140625 C 7.109375 -1.765625 7.832031 -1.578125 8.65625 -1.578125 Z M 8.65625 -1.578125 "/></g></g></g><g fill="#ffffff" fill-opacity="1"><g transform="translate(215.976007, 189.285013)"><g><path d="M 2.40625 5.609375 L 2.40625 -13.859375 L 4.453125 -13.859375 L 4.453125 -11.78125 L 4.71875 -11.734375 C 5.75 -13.328125 7.265625 -14.125 9.265625 -14.125 C 10.421875 -14.125 11.425781 -13.859375 12.28125 -13.328125 C 13.144531 -12.804688 13.816406 -12.003906 14.296875 -10.921875 C 14.773438 -9.847656 15.015625 -8.515625 15.015625 -6.921875 C 15.015625 -5.335938 14.765625 -4.007812 14.265625 -2.9375 C 13.765625 -1.863281 13.066406 -1.0625 12.171875 -0.53125 C 11.285156 0 10.265625 0.265625 9.109375 0.265625 C 8.171875 0.265625 7.335938 0.101562 6.609375 -0.21875 C 5.878906 -0.550781 5.25 -1.085938 4.71875 -1.828125 L 4.453125 -1.78125 L 4.453125 5.609375 Z M 8.65625 -1.578125 C 11.46875 -1.578125 12.875 -3.359375 12.875 -6.921875 C 12.875 -10.503906 11.46875 -12.296875 8.65625 -12.296875 C 7.832031 -12.296875 7.109375 -12.101562 6.484375 -11.71875 C 5.859375 -11.34375 5.363281 -10.753906 5 -9.953125 C 4.632812 -9.160156 4.453125 -8.148438 4.453125 -6.921875 C 4.453125 -5.710938 4.632812 -4.707031 5 -3.90625 C 5.363281 -3.101562 5.859375 -2.515625 6.484375 -2.140625 C 7.109375 -1.765625 7.832031 -1.578125 8.65625 -1.578125 Z M 8.65625 -1.578125 "/></g></g></g><g fill="#ffffff" fill-opacity="1"><g transform="translate(232.514563, 189.285013)"><g><path d="M 5.71875 0.265625 C 4.351562 0.265625 3.285156 -0.0859375 2.515625 -0.796875 C 1.753906 -1.515625 1.375 -2.535156 1.375 -3.859375 C 1.375 -4.679688 1.539062 -5.375 1.875 -5.9375 C 2.21875 -6.5 2.742188 -6.957031 3.453125 -7.3125 C 4.171875 -7.675781 5.101562 -7.953125 6.25 -8.140625 C 7.25 -8.304688 8.007812 -8.492188 8.53125 -8.703125 C 9.0625 -8.910156 9.414062 -9.144531 9.59375 -9.40625 C 9.769531 -9.664062 9.859375 -9.992188 9.859375 -10.390625 C 9.859375 -11.015625 9.640625 -11.492188 9.203125 -11.828125 C 8.773438 -12.171875 8.085938 -12.34375 7.140625 -12.34375 C 6.242188 -12.34375 5.472656 -12.164062 4.828125 -11.8125 C 4.191406 -11.46875 3.601562 -10.953125 3.0625 -10.265625 L 2.8125 -10.265625 L 1.8125 -11.6875 C 2.394531 -12.425781 3.140625 -13.015625 4.046875 -13.453125 C 4.953125 -13.898438 5.984375 -14.125 7.140625 -14.125 C 8.773438 -14.125 9.976562 -13.765625 10.75 -13.046875 C 11.519531 -12.328125 11.90625 -11.335938 11.90625 -10.078125 L 11.90625 -2.734375 C 11.90625 -1.960938 12.234375 -1.578125 12.890625 -1.578125 C 13.109375 -1.578125 13.316406 -1.613281 13.515625 -1.6875 L 13.703125 -1.640625 L 13.9375 -0.21875 C 13.78125 -0.113281 13.578125 -0.0351562 13.328125 0.015625 C 13.085938 0.0664062 12.835938 0.09375 12.578125 0.09375 C 11.816406 0.09375 11.238281 -0.0703125 10.84375 -0.40625 C 10.457031 -0.738281 10.210938 -1.234375 10.109375 -1.890625 L 9.84375 -1.90625 C 9.445312 -1.175781 8.910156 -0.628906 8.234375 -0.265625 C 7.566406 0.0859375 6.726562 0.265625 5.71875 0.265625 Z M 6.171875 -1.375 C 6.941406 -1.375 7.609375 -1.550781 8.171875 -1.90625 C 8.734375 -2.257812 9.164062 -2.757812 9.46875 -3.40625 C 9.769531 -4.050781 9.921875 -4.796875 9.921875 -5.640625 L 9.921875 -7.40625 L 9.6875 -7.453125 C 9.375 -7.234375 8.992188 -7.050781 8.546875 -6.90625 C 8.109375 -6.757812 7.492188 -6.628906 6.703125 -6.515625 C 5.890625 -6.398438 5.25 -6.226562 4.78125 -6 C 4.3125 -5.78125 3.972656 -5.492188 3.765625 -5.140625 C 3.566406 -4.796875 3.46875 -4.367188 3.46875 -3.859375 C 3.46875 -3.046875 3.707031 -2.425781 4.1875 -2 C 4.664062 -1.582031 5.328125 -1.375 6.171875 -1.375 Z M 6.171875 -1.375 "/></g></g></g><g fill="#ffffff" fill-opacity="1"><g transform="translate(246.853853, 189.285013)"><g><path d="M 2.40625 0 L 2.40625 -13.859375 L 4.359375 -13.859375 L 4.359375 -11.6875 L 4.625 -11.625 C 5.269531 -13.195312 6.484375 -13.984375 8.265625 -13.984375 C 9.210938 -13.984375 9.921875 -13.8125 10.390625 -13.46875 L 9.859375 -11.734375 L 9.609375 -11.6875 C 9.085938 -11.945312 8.519531 -12.078125 7.90625 -12.078125 C 6.800781 -12.078125 5.945312 -11.660156 5.34375 -10.828125 C 4.75 -10.003906 4.453125 -8.660156 4.453125 -6.796875 L 4.453125 0 Z M 2.40625 0 "/></g></g></g><g fill="#ffffff" fill-opacity="1"><g transform="translate(257.561186, 189.285013)"><g><path d="M 7.953125 0.265625 C 6.648438 0.265625 5.515625 -0.0078125 4.546875 -0.5625 C 3.578125 -1.113281 2.828125 -1.925781 2.296875 -3 C 1.773438 -4.082031 1.515625 -5.390625 1.515625 -6.921875 C 1.515625 -8.453125 1.773438 -9.757812 2.296875 -10.84375 C 2.828125 -11.925781 3.578125 -12.742188 4.546875 -13.296875 C 5.515625 -13.847656 6.648438 -14.125 7.953125 -14.125 C 9.265625 -14.125 10.398438 -13.847656 11.359375 -13.296875 C 12.328125 -12.742188 13.070312 -11.925781 13.59375 -10.84375 C 14.125 -9.757812 14.390625 -8.453125 14.390625 -6.921875 C 14.390625 -5.390625 14.125 -4.082031 13.59375 -3 C 13.070312 -1.925781 12.328125 -1.113281 11.359375 -0.5625 C 10.398438 -0.0078125 9.265625 0.265625 7.953125 0.265625 Z M 7.953125 -1.578125 C 9.335938 -1.578125 10.394531 -2.007812 11.125 -2.875 C 11.851562 -3.75 12.21875 -5.097656 12.21875 -6.921875 C 12.21875 -8.753906 11.851562 -10.109375 11.125 -10.984375 C 10.394531 -11.859375 9.335938 -12.296875 7.953125 -12.296875 C 6.566406 -12.296875 5.503906 -11.851562 4.765625 -10.96875 C 4.035156 -10.09375 3.671875 -8.742188 3.671875 -6.921875 C 3.671875 -5.097656 4.035156 -3.75 4.765625 -2.875 C 5.503906 -2.007812 6.566406 -1.578125 7.953125 -1.578125 Z M 7.953125 -1.578125 "/></g></g></g><g fill="#ffffff" fill-opacity="1"><g transform="translate(273.471378, 189.285013)"><g><path d="M 7.953125 0.265625 C 6.648438 0.265625 5.515625 -0.0078125 4.546875 -0.5625 C 3.578125 -1.113281 2.828125 -1.925781 2.296875 -3 C 1.773438 -4.082031 1.515625 -5.390625 1.515625 -6.921875 C 1.515625 -8.453125 1.773438 -9.757812 2.296875 -10.84375 C 2.828125 -11.925781 3.578125 -12.742188 4.546875 -13.296875 C 5.515625 -13.847656 6.648438 -14.125 7.953125 -14.125 C 9.265625 -14.125 10.398438 -13.847656 11.359375 -13.296875 C 12.328125 -12.742188 13.070312 -11.925781 13.59375 -10.84375 C 14.125 -9.757812 14.390625 -8.453125 14.390625 -6.921875 C 14.390625 -5.390625 14.125 -4.082031 13.59375 -3 C 13.070312 -1.925781 12.328125 -1.113281 11.359375 -0.5625 C 10.398438 -0.0078125 9.265625 0.265625 7.953125 0.265625 Z M 7.953125 -1.578125 C 9.335938 -1.578125 10.394531 -2.007812 11.125 -2.875 C 11.851562 -3.75 12.21875 -5.097656 12.21875 -6.921875 C 12.21875 -8.753906 11.851562 -10.109375 11.125 -10.984375 C 10.394531 -11.859375 9.335938 -12.296875 7.953125 -12.296875 C 6.566406 -12.296875 5.503906 -11.851562 4.765625 -10.96875 C 4.035156 -10.09375 3.671875 -8.742188 3.671875 -6.921875 C 3.671875 -5.097656 4.035156 -3.75 4.765625 -2.875 C 5.503906 -2.007812 6.566406 -1.578125 7.953125 -1.578125 Z M 7.953125 -1.578125 "/></g></g></g></svg>